<svg xmlns="http://www.w3.org/2000/svg" viewBox="0 0 200 200">
  <defs>
    <linearGradient id="wa-bg" x1="0" y1="0" x2="1" y2="1">
      <stop offset="0%" stop-color="#1a1a0a"/>
      <stop offset="100%" stop-color="#2a2a1a"/>
    </linearGradient>
  </defs>
  <rect width="200" height="200" rx="24" fill="url(#wa-bg)"/>
  <!-- Shield frame -->
  <path d="M100 30 L150 60 L150 130 L100 170 L50 130 L50 60 Z" fill="none" stroke="#ffc107" stroke-width="2.5"/>
  <!-- Face -->
  <circle cx="100" cy="85" r="26" fill="#e8d5b7"/>
  <!-- Eyes - calm, protective -->
  <path d="M86 82 Q90 80 94 82" fill="none" stroke="#ffc107" stroke-width="2"/>
  <path d="M106 82 Q110 80 114 82" fill="none" stroke="#ffc107" stroke-width="2"/>
  <!-- Body -->
  <path d="M74 111 L100 125 L126 111 L135 170 L65 170 Z" fill="#3a3a2a" stroke="#ffc107" stroke-width="1"/>
  <!-- Shield emblem -->
  <path d="M100 130 L110 140 L110 155 L100 162 L90 155 L90 140 Z" fill="none" stroke="#ffc107" stroke-width="1.5"/>
  <text x="100" y="152" text-anchor="middle" font-size="10" fill="#ffc107" font-weight="bold">W</text>
  <!-- Streak stars -->
  <polygon points="40,50 42,56 48,56 43,60 45,66 40,62 35,66 37,60 32,56 38,56" fill="#ffc107" opacity="0.5"/>
  <polygon points="160,45 162,51 168,51 163,55 165,61 160,57 155,61 157,55 152,51 158,51" fill="#ffc107" opacity="0.4"/>
</svg>
